<svg xmlns="http://www.w3.org/2000/svg" width="184.73mm" height="106.14mm" viewBox="0 0 523.65 300.86"><defs><style>.cls-1{fill:#3e3e3e;stroke:#3e3e3e;stroke-miterlimit:10;}</style></defs><g id="レイヤー_2" data-name="レイヤー 2"><g id="レイヤー_1-2" data-name="レイヤー 1"><path class="cls-1" d="M4.78,300.36A4.28,4.28,0,0,1,3.6,292c1.19-.34,119.84-34.88,158.84-76.76,2.69-2.89,2.72-5.09,2.51-6.5-1.55-10.26-23.92-23.15-43.67-34.53-22.43-12.92-41.81-24.08-43.16-36.28C77,127.94,84,117.23,99,106.06c45-33.68,146.16-61.68,187.92-44.17a4.28,4.28,0,0,1-3.32,7.9c-17.88-7.5-50.19-6.14-88.64,3.72-35.81,9.18-70.61,24.28-90.83,39.41-12,9-18.19,17.5-17.47,24,.88,7.89,22,20,38.93,29.81,23.5,13.54,45.7,26.32,47.86,40.68.73,4.88-.85,9.46-4.71,13.61C128.1,264.65,10.94,298.76,6,300.19A4.08,4.08,0,0,1,4.78,300.36Z"/><path class="cls-1" d="M435.62,279.88a20.86,20.86,0,0,1-3.85-.26c-13.72-2.84-22.75-8.18-27.62-16.3-7.32-12.23-2.95-27,.57-38.93a92.76,92.76,0,0,0,2.49-9.56c.78-4.58,1.05-10.48-2.08-12.58-12.1-8.16-62.11,22.63-92,41-35.21,21.68-46.58,28.25-51.51,21.92-3.55-4.55-4.78-10.85-4.72-17.52-9.29,6.26-20.68,12.93-34.51,20.39-11.8,6.37-21.08,6.71-27.58,1-22.74-19.91,4.71-114.68,13.73-145.82,17.69-61.11,39.73-119.42,39.95-120a4.28,4.28,0,1,1,8,3c-.22.58-22.15,58.61-39.75,119.39-30.39,105-23.25,130.87-16.29,137,3.52,3.09,9.53,2.38,17.86-2.11,17.18-9.26,30.08-17.13,39.72-24.22.55-3.11,1.25-6.13,2-8.93,3.55-13.23,9.82-27.7,16-36.86,3.13-4.66,7.35-9.81,12.26-8.44,3.1.88,4.78,3.81,5,8.71.8,19.78-6,34.08-27.33,50.41-1,7.85-.46,13.93,1.69,17.63,5.85-1.19,25.24-13.14,41-22.84,47.93-29.53,85.83-51.28,101.28-40.86,5.54,3.75,7.47,10.85,5.73,21.12a97.46,97.46,0,0,1-2.73,10.56c-3,10.29-6.82,23.1-1.43,32.09,3.52,5.88,10.93,10,22,12.32a45.92,45.92,0,0,0,6.55-.08,4.28,4.28,0,0,1,.55,8.55C439.52,279.77,437.53,279.88,435.62,279.88ZM284.77,193c-4.3,5.65-11.45,19.14-15.83,34.38C281.74,215.42,284.94,205.21,284.77,193Z"/><path class="cls-1" d="M519,278.63a5.16,5.16,0,0,1-3.34-1.57l0,.05-.94-1.08-.13-.14L510.22,271a4.29,4.29,0,0,1,6.44-5.66l4.28,4.88,0,0,.12.14,1,1.08-.06.05c1.1,1.55,2.07,3.89-.33,6A4,4,0,0,1,519,278.63Z"/></g></g></svg>